<?xml version="1.0" encoding="UTF-8"?>
<svg xmlns="http://www.w3.org/2000/svg" xmlns:xlink="http://www.w3.org/1999/xlink" width="841.89pt" height="595.276pt" viewBox="0 0 841.89 595.276" version="1.1">
<g id="surface1">
<path style=" stroke:none;fill-rule:nonzero;fill:rgb(100%,100%,100%);fill-opacity:1;" d="M 0 595.277344 L 841.890625 595.277344 L 841.890625 0 L 0 0 Z M 0 595.277344 "/>
<path style=" stroke:none;fill-rule:nonzero;fill:rgb(0%,29.026794%,50.584412%);fill-opacity:1;" d="M 569.113281 316.03125 C 569.113281 316.03125 582.488281 297.382813 618.34375 297.382813 C 618.34375 297.382813 596.828125 320.335938 595.875 327.507813 "/>
<path style=" stroke:none;fill-rule:nonzero;fill:rgb(0%,29.026794%,50.584412%);fill-opacity:1;" d="M 512.359375 346.234375 L 548.476563 346.234375 C 548.476563 346.222656 523.796875 267.410156 733.542969 274.742188 C 733.542969 274.742188 752.675781 170.65625 656.585938 164.929688 L 512.359375 164.929688 L 512.359375 234.566406 L 518.109375 234.566406 C 518.109375 234.566406 512.601563 200.359375 543.21875 200.359375 L 639.089844 200.359375 C 639.089844 200.359375 701.28125 194.148438 713.953125 237.4375 C 713.953125 237.4375 656.058594 238.386719 607.765625 247.476563 C 607.765625 247.476563 512.359375 255.195313 512.359375 346.234375 "/>
<path style=" stroke:none;fill-rule:nonzero;fill:rgb(0%,29.026794%,50.584412%);fill-opacity:1;" d="M 106.78125 172.800781 L 106.78125 165.273438 L 211.488281 165.273438 L 211.488281 172.800781 C 211.488281 172.800781 178.847656 171.355469 178.847656 192.527344 L 178.847656 296.886719 C 178.847656 296.886719 181.359375 336.722656 213.460938 349.023438 C 232.703125 356.390625 247.378906 354.507813 260.980469 351.03125 C 298.796875 341.347656 301.683594 296.695313 301.683594 296.695313 L 302.03125 194.675781 C 302.03125 194.675781 301.855469 169.214844 268.152344 173.527344 L 268.152344 165.273438 L 370.703125 165.273438 L 370.703125 173.148438 C 370.703125 173.148438 338.074219 169.574219 338.074219 194.320313 L 338.074219 288.28125 C 338.074219 288.28125 338.433594 357.851563 268.148438 367.878906 C 268.148438 367.878906 226.558594 371.46875 215.789063 368.957031 C 215.789063 368.957031 144.191406 366.078125 141.921875 284.6875 C 140.222656 223.742188 141.921875 195.394531 141.921875 195.394531 C 141.921875 195.394531 141.464844 182.5 132.667969 177.1875 C 123.738281 171.816406 106.78125 172.800781 106.78125 172.800781 "/>
<path style=" stroke:none;fill-rule:nonzero;fill:rgb(52.929688%,52.929688%,52.929688%);fill-opacity:1;" d="M 143.28125 332.070313 C 143.28125 332.070313 151.957031 355.417969 175.929688 368.300781 C 178.203125 369.519531 175.929688 507.789063 175.929688 507.789063 C 175.929688 507.789063 173.0625 538.277344 210.339844 535.40625 L 210.339844 540.058594 L 108.503906 540.058594 L 108.503906 535.40625 C 108.503906 535.40625 145.085938 539.703125 142.945313 508.511719 C 142.945313 508.511719 143.28125 339.25 143.28125 332.070313 "/>
<path style=" stroke:none;fill-rule:nonzero;fill:rgb(52.929688%,52.929688%,52.929688%);fill-opacity:1;" d="M 335.71875 332.070313 C 335.71875 332.070313 327.042969 355.417969 303.066406 368.300781 C 300.808594 369.519531 303.066406 507.789063 303.066406 507.789063 C 303.066406 507.789063 305.933594 538.277344 268.648438 535.40625 L 268.648438 540.058594 L 370.492188 540.058594 L 370.492188 535.40625 C 370.492188 535.40625 333.925781 539.703125 336.0625 508.511719 C 336.066406 508.511719 335.71875 339.25 335.71875 332.070313 "/>
<path style=" stroke:none;fill-rule:nonzero;fill:rgb(52.929688%,52.929688%,52.929688%);fill-opacity:1;" d="M 192.414063 443.503906 L 286.574219 443.503906 L 286.574219 430.113281 L 192.414063 430.113281 Z M 192.414063 443.503906 "/>
<path style=" stroke:none;fill-rule:nonzero;fill:rgb(52.929688%,52.929688%,52.929688%);fill-opacity:1;" d="M 390.324219 539.121094 L 423.296875 539.121094 L 423.296875 166.230469 L 390.324219 166.230469 Z M 390.324219 539.121094 "/>
<path style=" stroke:none;fill-rule:nonzero;fill:rgb(52.929688%,52.929688%,52.929688%);fill-opacity:1;" d="M 443.351563 539.121094 L 476.335938 539.121094 L 476.335938 166.230469 L 443.351563 166.230469 Z M 443.351563 539.121094 "/>
<path style=" stroke:none;fill-rule:nonzero;fill:rgb(52.929688%,52.929688%,52.929688%);fill-opacity:1;" d="M 511.90625 540.195313 L 547.996094 540.195313 C 547.996094 540.195313 523.332031 461.382813 733.074219 468.691406 C 733.074219 468.691406 752.21875 364.632813 656.105469 358.902344 L 511.902344 358.902344 L 511.902344 428.523438 L 517.640625 428.523438 C 517.640625 428.523438 512.140625 394.328125 542.738281 394.328125 L 638.632813 394.328125 C 638.632813 394.328125 700.804688 388.121094 713.472656 431.398438 C 713.472656 431.398438 655.59375 432.359375 607.296875 441.4375 C 607.300781 441.4375 511.882813 449.152344 511.90625 540.195313 "/>
<path style=" stroke:none;fill-rule:nonzero;fill:rgb(0%,0%,0%);fill-opacity:1;" d="M 110.980469 73.242188 C 110.980469 69.644531 112.550781 67.011719 115.644531 67.011719 C 117.414063 67.011719 121.671875 67.820313 123.242188 72.886719 L 124.003906 71.113281 C 124.355469 70.304688 124.507813 69.546875 124.507813 68.785156 C 123.746094 64.527344 119.59375 62.757813 116.097656 62.757813 C 109.460938 62.757813 105.914063 67.773438 105.914063 73.902344 C 105.914063 75.878906 106.320313 77.699219 107.183594 79.273438 L 103.585938 79.273438 L 103.585938 81.550781 C 103.585938 82.816406 104.75 84.339844 106.523438 84.339844 L 123.34375 84.339844 C 125.117188 84.339844 126.28125 82.816406 126.28125 81.550781 L 126.28125 79.273438 L 113.3125 79.273438 C 111.691406 78.15625 110.980469 76.128906 110.980469 73.242188 "/>
<path style=" stroke:none;fill-rule:nonzero;fill:rgb(0%,0%,0%);fill-opacity:1;" d="M 162.507813 59.058594 C 164.078125 59.058594 165.394531 57.738281 165.394531 56.121094 C 165.394531 54.5 164.078125 53.28125 162.507813 53.28125 C 160.835938 53.28125 159.566406 54.5 159.566406 56.121094 C 159.566406 57.738281 160.835938 59.058594 162.507813 59.058594 "/>
<path style=" stroke:none;fill-rule:nonzero;fill:rgb(0%,0%,0%);fill-opacity:1;" d="M 188.039063 87.378906 C 186.472656 87.378906 185.15625 88.695313 185.15625 90.265625 C 185.15625 91.9375 186.472656 93.203125 188.039063 93.203125 C 189.613281 93.203125 191.03125 91.9375 191.03125 90.265625 C 191.03125 88.695313 189.613281 87.378906 188.039063 87.378906 "/>
<path style=" stroke:none;fill-rule:nonzero;fill:rgb(0%,0%,0%);fill-opacity:1;" d="M 181.507813 87.378906 C 179.886719 87.378906 178.566406 88.695313 178.566406 90.265625 C 178.566406 91.9375 179.886719 93.203125 181.507813 93.203125 C 183.078125 93.203125 184.394531 91.9375 184.394531 90.265625 C 184.394531 88.695313 183.078125 87.378906 181.507813 87.378906 "/>
<path style=" stroke:none;fill-rule:nonzero;fill:rgb(0%,0%,0%);fill-opacity:1;" d="M 201.164063 87.125 C 199.542969 87.125 198.277344 88.390625 198.277344 90.0625 C 198.277344 91.683594 199.542969 92.898438 201.164063 92.898438 C 202.734375 92.898438 204.050781 91.683594 204.050781 90.0625 C 204.050781 88.390625 202.734375 87.125 201.164063 87.125 "/>
<path style=" stroke:none;fill-rule:nonzero;fill:rgb(0%,0%,0%);fill-opacity:1;" d="M 169.648438 79.273438 L 151.210938 79.273438 C 152.121094 75.523438 156.226563 68.734375 162.152344 68.53125 C 168.789063 68.835938 169.699219 73.292969 169.699219 77.5 C 169.699219 78.105469 169.699219 78.714844 169.648438 79.273438 M 214.640625 53.738281 L 212.765625 53.738281 L 212.765625 75.472656 C 212.765625 77.753906 211.90625 79.070313 209.523438 79.273438 L 209.421875 79.273438 C 205.621094 79.273438 204.304688 77.699219 204.101563 74.15625 L 204.101563 71.066406 C 204.101563 68.429688 202.785156 67.113281 200.148438 67.113281 L 198.328125 67.113281 L 198.328125 75.472656 C 198.328125 77.804688 197.414063 79.070313 195.035156 79.273438 L 194.375 79.273438 C 190.574219 79.273438 189.257813 77.699219 189.054688 74.15625 L 189.054688 71.066406 C 189.054688 68.429688 187.738281 67.113281 185.105469 67.113281 L 183.28125 67.113281 L 183.28125 75.472656 C 183.28125 77.804688 182.367188 79.070313 179.984375 79.273438 L 174.714844 79.273438 L 174.714844 77.804688 C 174.714844 71.46875 171.675781 62.859375 163.367188 62.859375 C 157.996094 62.859375 153.539063 67.0625 150.449219 72.230469 L 150.449219 71.367188 C 150.449219 67.621094 149.335938 67.621094 146.546875 67.621094 L 145.382813 67.621094 L 145.382813 79.273438 L 140.417969 79.273438 C 138.390625 79.070313 137.429688 78.105469 137.226563 76.382813 L 137.226563 56.675781 C 137.226563 54.902344 135.503906 53.738281 133.984375 53.738281 L 131.351563 53.738281 L 131.351563 75.726563 C 131.351563 80.417969 134.109375 84.019531 139.757813 84.320313 L 139.757813 84.339844 L 180.441406 84.339844 C 183.230469 84.238281 185.308594 83.375 186.773438 81.957031 C 188.292969 83.300781 190.332031 84.082031 192.855469 84.28125 L 192.855469 84.386719 C 197.0625 84.386719 199.796875 83.933594 201.824219 81.957031 C 203.597656 83.527344 206.078125 84.386719 209.21875 84.386719 L 209.421875 84.386719 L 209.421875 84.339844 L 209.980469 84.339844 C 215.808594 84.136719 218.644531 80.488281 218.644531 75.726563 L 218.644531 57.691406 C 218.644531 55.054688 217.273438 53.738281 214.640625 53.738281 "/>
<path style=" stroke:none;fill-rule:nonzero;fill:rgb(0%,0%,0%);fill-opacity:1;" d="M 226.800781 53.789063 L 224.21875 53.789063 L 224.21875 80.4375 C 224.21875 83.121094 225.9375 84.335938 227.710938 84.335938 L 230.042969 84.335938 L 230.042969 56.675781 C 230.042969 55.003906 228.269531 53.789063 226.800781 53.789063 "/>
<path style=" stroke:none;fill-rule:nonzero;fill:rgb(0%,0%,0%);fill-opacity:1;" d="M 255.273438 67.011719 L 253.09375 67.011719 L 253.09375 79.269531 C 253.09375 84.742188 253.5 88.1875 249.496094 88.1875 C 249.34375 88.1875 248.382813 88.136719 247.472656 87.984375 L 247.472656 90.113281 C 247.472656 92.089844 249.144531 93.203125 251.625 93.203125 C 255.878906 93.203125 258.972656 89.910156 258.972656 86.3125 L 258.972656 71.0625 C 258.972656 68.175781 258.109375 67.011719 255.273438 67.011719 "/>
<path style=" stroke:none;fill-rule:nonzero;fill:rgb(0%,0%,0%);fill-opacity:1;" d="M 267.128906 53.789063 L 264.546875 53.789063 L 264.546875 80.4375 C 264.546875 83.121094 266.265625 84.335938 268.039063 84.335938 L 270.371094 84.335938 L 270.371094 56.675781 C 270.371094 55.003906 268.597656 53.789063 267.128906 53.789063 "/>
<path style=" stroke:none;fill-rule:nonzero;fill:rgb(0%,0%,0%);fill-opacity:1;" d="M 306.644531 53.738281 L 304.769531 53.738281 L 304.769531 75.472656 C 304.769531 77.75 303.910156 79.070313 301.527344 79.273438 L 300.617188 79.273438 C 296.105469 79.273438 295.851563 78.359375 294.585938 74.609375 C 293.574219 70.863281 291.597656 68.53125 291.039063 67.820313 C 288.964844 65.339844 285.769531 64.527344 285.671875 64.527344 C 284.859375 64.324219 284.152344 64.226563 283.492188 64.226563 C 281.3125 64.226563 279.996094 65.238281 278.882813 67.011719 L 277.867188 68.632813 C 278.78125 68.480469 279.589844 68.429688 280.351563 68.429688 C 282.121094 68.429688 283.746094 68.886719 285.417969 69.949219 C 285.570313 70.050781 289.925781 72.886719 289.925781 79.273438 L 275.945313 79.273438 L 275.945313 81.296875 C 275.945313 82.816406 276.855469 84.335938 278.730469 84.335938 L 290.6875 84.335938 C 292.308594 84.335938 293.421875 83.273438 294.433594 82.3125 C 296.152344 83.9375 297.628906 84.28125 300.160156 84.328125 L 300.160156 84.335938 L 301.984375 84.335938 C 307.8125 84.136719 310.648438 80.488281 310.648438 75.726563 L 310.648438 57.691406 C 310.648438 55.054688 309.28125 53.738281 306.644531 53.738281 "/>
<path style=" stroke:none;fill-rule:nonzero;fill:rgb(0%,0%,0%);fill-opacity:1;" d="M 332.9375 67.0625 L 331.066406 67.0625 L 331.066406 75.421875 C 331.066406 77.75 330.152344 79.019531 327.824219 79.269531 L 324.277344 79.269531 C 322.25 79.066406 321.289063 78.105469 321.085938 76.382813 L 321.085938 56.675781 C 321.085938 54.902344 319.363281 53.738281 317.84375 53.738281 L 315.210938 53.738281 L 315.210938 75.726563 C 315.210938 80.414063 317.964844 84.019531 323.617188 84.320313 L 323.617188 84.335938 L 328.277344 84.335938 C 334.054688 84.136719 336.839844 80.4375 336.839844 75.726563 L 336.839844 71.0625 C 336.839844 68.429688 335.523438 67.0625 332.9375 67.0625 "/>
<path style=" stroke:none;fill-rule:nonzero;fill:rgb(0%,0%,0%);fill-opacity:1;" d="M 331.570313 87.125 C 329.949219 87.125 328.734375 88.441406 328.734375 90.011719 C 328.734375 91.683594 330 92.949219 331.570313 92.949219 C 333.09375 92.949219 334.5625 91.683594 334.507813 90.011719 C 334.507813 88.390625 333.140625 87.125 331.570313 87.125 "/>
<path style=" stroke:none;fill-rule:nonzero;fill:rgb(0%,0%,0%);fill-opacity:1;" d="M 370.023438 94.976563 C 368.402344 94.976563 367.089844 96.191406 367.089844 97.8125 C 367.089844 99.433594 368.402344 100.75 370.023438 100.75 C 371.644531 100.75 372.964844 99.433594 372.964844 97.8125 C 372.964844 96.191406 371.644531 94.976563 370.023438 94.976563 "/>
<path style=" stroke:none;fill-rule:nonzero;fill:rgb(0%,0%,0%);fill-opacity:1;" d="M 363.4375 94.976563 C 361.816406 94.976563 360.550781 96.191406 360.550781 97.8125 C 360.550781 99.433594 361.816406 100.75 363.4375 100.75 C 365.011719 100.75 366.378906 99.433594 366.378906 97.8125 C 366.378906 96.191406 365.011719 94.976563 363.4375 94.976563 "/>
<path style=" stroke:none;fill-rule:nonzero;fill:rgb(0%,0%,0%);fill-opacity:1;" d="M 407.367188 63.871094 C 408.886719 63.871094 410.253906 62.554688 410.253906 60.933594 C 410.253906 59.308594 408.9375 58.042969 407.367188 58.042969 C 405.742188 58.042969 404.476563 59.308594 404.476563 60.933594 C 404.476563 62.554688 405.742188 63.871094 407.367188 63.871094 "/>
<path style=" stroke:none;fill-rule:nonzero;fill:rgb(0%,0%,0%);fill-opacity:1;" d="M 406.554688 67.0625 L 404.679688 67.0625 L 404.679688 75.421875 C 404.679688 77.75 403.769531 79.019531 401.4375 79.269531 L 393.9375 79.269531 L 393.9375 62.804688 L 389.226563 62.804688 C 382.894531 62.804688 378.738281 64.53125 376.460938 68.125 C 371.644531 75.625 376.761719 87.53125 368.960938 87.53125 L 368.859375 87.53125 C 360.195313 87.429688 359.488281 83.476563 359.488281 78.714844 C 359.488281 72.738281 363.539063 70.8125 363.539063 70.8125 L 360.90625 70.558594 C 357.105469 70.558594 354.777344 73.902344 354.777344 79.117188 C 354.777344 87.679688 359.4375 92.34375 368.554688 92.34375 C 376.964844 92.34375 378.382813 87.226563 378.890625 80.082031 C 379.449219 73.546875 380.308594 68.125 388.871094 68.023438 L 388.871094 84.335938 L 401.894531 84.335938 C 407.671875 84.136719 410.457031 80.4375 410.457031 75.726563 L 410.457031 71.0625 C 410.457031 68.429688 409.140625 67.0625 406.554688 67.0625 "/>
<path style=" stroke:none;fill-rule:nonzero;fill:rgb(0%,0%,0%);fill-opacity:1;" d="M 432.191406 57.84375 C 433.558594 57.84375 434.878906 56.625 434.878906 55.207031 C 434.878906 53.738281 433.558594 52.574219 432.191406 52.574219 C 430.722656 52.574219 429.609375 53.738281 429.609375 55.207031 C 429.609375 56.625 430.722656 57.84375 432.191406 57.84375 "/>
<path style=" stroke:none;fill-rule:nonzero;fill:rgb(0%,0%,0%);fill-opacity:1;" d="M 432.597656 60.882813 C 432.597656 62.503906 433.914063 63.769531 435.484375 63.769531 C 437.105469 63.769531 438.421875 62.503906 438.421875 60.882813 C 438.421875 59.210938 437.105469 57.945313 435.484375 57.945313 C 433.914063 57.945313 432.597656 59.210938 432.597656 60.882813 "/>
<path style=" stroke:none;fill-rule:nonzero;fill:rgb(0%,0%,0%);fill-opacity:1;" d="M 428.898438 63.769531 C 430.46875 63.769531 431.785156 62.503906 431.785156 60.882813 C 431.785156 59.210938 430.46875 57.941406 428.898438 57.941406 C 427.277344 57.941406 425.960938 59.210938 425.960938 60.882813 C 425.960938 62.503906 427.277344 63.769531 428.898438 63.769531 "/>
<path style=" stroke:none;fill-rule:nonzero;fill:rgb(0%,0%,0%);fill-opacity:1;" d="M 445.71875 53.738281 L 443.84375 53.738281 L 443.84375 75.472656 C 443.84375 77.75 442.984375 79.070313 440.601563 79.273438 L 440.5 79.273438 C 436.699219 79.171875 435.382813 77.699219 435.179688 74.15625 L 435.179688 71.0625 C 435.179688 68.429688 433.863281 67.113281 431.226563 67.113281 L 429.40625 67.113281 L 429.40625 75.472656 C 429.40625 77.800781 428.492188 79.070313 426.113281 79.273438 L 424.59375 79.273438 C 422.566406 79.070313 421.601563 78.105469 421.398438 76.382813 L 421.398438 56.675781 C 421.398438 54.902344 419.679688 53.738281 418.15625 53.738281 L 415.523438 53.738281 L 415.523438 75.726563 C 415.523438 80.414063 418.28125 84.019531 423.933594 84.320313 L 423.933594 84.335938 L 426.566406 84.335938 C 429.355469 84.234375 431.429688 83.375 432.898438 81.957031 C 434.46875 83.34375 436.59375 84.136719 439.234375 84.300781 L 439.234375 84.335938 L 441.058594 84.335938 C 446.882813 84.136719 449.722656 80.488281 449.722656 75.726563 L 449.722656 57.691406 C 449.722656 55.054688 448.351563 53.738281 445.71875 53.738281 "/>
<path style=" stroke:none;fill-rule:nonzero;fill:rgb(0%,0%,0%);fill-opacity:1;" d="M 457.878906 53.789063 L 455.292969 53.789063 L 455.292969 80.4375 C 455.292969 83.121094 457.015625 84.335938 458.789063 84.335938 L 461.121094 84.335938 L 461.121094 56.675781 C 461.121094 55.003906 459.347656 53.789063 457.878906 53.789063 "/>
<path style=" stroke:none;fill-rule:nonzero;fill:rgb(0%,0%,0%);fill-opacity:1;" d="M 493.390625 66.554688 C 495.0625 66.554688 496.378906 65.238281 496.378906 63.617188 C 496.378906 61.945313 495.0625 60.679688 493.390625 60.679688 C 491.769531 60.679688 490.503906 61.945313 490.503906 63.617188 C 490.503906 65.238281 491.769531 66.554688 493.390625 66.554688 "/>
<path style=" stroke:none;fill-rule:nonzero;fill:rgb(0%,0%,0%);fill-opacity:1;" d="M 588.945313 53.738281 L 587.070313 53.738281 L 587.070313 75.472656 C 587.070313 77.75 586.210938 79.070313 583.828125 79.273438 L 579.113281 79.273438 C 578.203125 71.824219 574.453125 62.855469 565.691406 62.855469 C 558.34375 62.855469 557.484375 65.441406 557.484375 68.835938 L 557.484375 70.761719 C 559.710938 68.683594 561.6875 67.921875 564.574219 67.921875 C 570.707031 67.921875 573.085938 76.027344 573.898438 79.273438 L 553.324219 79.273438 C 551.554688 79.273438 550.234375 78.359375 550.085938 76.027344 C 550.085938 72.785156 550.03125 72.484375 550.03125 68.328125 C 550.03125 65.695313 548.664063 64.378906 546.03125 64.378906 L 544.15625 64.378906 L 544.15625 75.472656 C 544.15625 77.75 543.296875 79.019531 540.257813 79.273438 C 538.027344 79.273438 536.863281 78.867188 536.203125 77.902344 C 536.40625 76.585938 536.558594 74.863281 536.558594 72.53125 L 536.558594 68.328125 C 536.558594 65.746094 535.238281 64.378906 532.605469 64.378906 L 530.78125 64.378906 L 530.78125 75.472656 C 530.78125 77.800781 529.871094 79.019531 527.488281 79.273438 L 523.082031 79.273438 L 523.082031 67.265625 C 523.082031 65.59375 521.308594 64.378906 519.839844 64.378906 L 517.257813 64.378906 L 517.257813 79.273438 L 512.238281 79.273438 C 510.058594 79.273438 508.640625 78.917969 507.730469 78.207031 C 507.828125 76.6875 507.777344 75.472656 507.777344 74.964844 L 507.777344 71.015625 C 507.777344 68.429688 506.464844 67.011719 503.828125 67.011719 L 501.953125 67.011719 L 501.953125 74.964844 C 501.953125 85.757813 497.949219 88.898438 492.023438 88.898438 C 486.550781 88.898438 482.90625 83.984375 482.90625 78.917969 C 482.90625 76.636719 483.613281 73.242188 485.742188 71.367188 L 483.917969 71.367188 C 480.320313 71.367188 478.546875 74.609375 478.546875 78.96875 C 478.546875 87.277344 484.476563 94.113281 492.835938 94.113281 C 501.953125 94.113281 505.5 88.59375 506.917969 83.476563 C 508.386719 84.285156 510.109375 84.335938 511.425781 84.335938 L 526.273438 84.335938 C 529.414063 84.335938 532.152344 83.984375 533.621094 82.515625 C 536.152344 84.386719 540.507813 84.335938 540.964844 84.335938 L 541.371094 84.335938 C 543.550781 84.285156 546.4375 83.679688 547.90625 82.109375 C 549.273438 83.679688 551.453125 84.335938 553.730469 84.335938 L 584.285156 84.335938 C 590.109375 84.136719 592.949219 80.488281 592.949219 75.726563 L 592.949219 57.691406 C 592.949219 55.054688 591.578125 53.738281 588.945313 53.738281 "/>
<path style=" stroke:none;fill-rule:nonzero;fill:rgb(0%,0%,0%);fill-opacity:1;" d="M 601.105469 53.789063 L 598.519531 53.789063 L 598.519531 80.4375 C 598.519531 83.121094 600.246094 84.335938 602.019531 84.335938 L 604.347656 84.335938 L 604.347656 56.675781 C 604.347656 55.003906 602.574219 53.789063 601.105469 53.789063 "/>
<path style=" stroke:none;fill-rule:nonzero;fill:rgb(0%,0%,0%);fill-opacity:1;" d="M 635.101563 59.007813 C 636.722656 59.007813 638.039063 57.742188 638.039063 56.070313 C 638.039063 54.5 636.722656 53.230469 635.101563 53.230469 C 633.53125 53.230469 632.210938 54.5 632.210938 56.070313 C 632.210938 57.742188 633.53125 59.007813 635.101563 59.007813 "/>
<path style=" stroke:none;fill-rule:nonzero;fill:rgb(0%,0%,0%);fill-opacity:1;" d="M 628.261719 59.007813 C 629.933594 59.007813 631.25 57.742188 631.25 56.070313 C 631.25 54.5 629.933594 53.230469 628.261719 53.230469 C 626.691406 53.230469 625.425781 54.5 625.425781 56.070313 C 625.425781 57.742188 626.691406 59.007813 628.261719 59.007813 "/>
<path style=" stroke:none;fill-rule:nonzero;fill:rgb(0%,0%,0%);fill-opacity:1;" d="M 689.867188 80.03125 C 686.726563 80.03125 685.15625 77.5 685.15625 73.902344 C 685.15625 69.644531 686.726563 67.0625 690.324219 67.0625 C 693.414063 67.0625 694.984375 69.644531 694.984375 73.242188 C 694.984375 77.5 693.464844 80.03125 689.867188 80.03125 M 661.902344 75.675781 C 659.417969 74.257813 657.339844 71.46875 654.65625 70.152344 C 655.621094 69.695313 658.203125 67.46875 662.15625 67.46875 C 663.828125 67.46875 665.753906 67.871094 667.929688 68.988281 C 665.902344 71.824219 664.183594 73.800781 661.902344 75.675781 M 636.871094 79.273438 C 633.53125 79.171875 626.789063 79.980469 626.789063 73.292969 C 626.789063 69.644531 628.363281 67.0625 631.503906 67.0625 C 636.367188 67.0625 636.921875 71.367188 636.921875 75.625 C 636.921875 76.890625 636.871094 78.15625 636.871094 79.273438 M 689.867188 62.804688 C 683.839844 62.804688 680.089844 67.722656 680.089844 73.089844 C 679.988281 77.597656 678.773438 79.273438 674.113281 79.273438 L 673.199219 79.273438 C 672.386719 79.273438 672.386719 79.320313 669.046875 79.320313 C 667.980469 79.320313 666.765625 79.171875 665.601563 78.460938 C 669.144531 75.523438 672.238281 70.660156 673.300781 68.074219 C 670.972656 66.808594 667.476563 63.011719 661.597656 63.011719 C 659.367188 63.011719 655.871094 64.328125 655.722656 64.679688 C 653.492188 65.898438 650.910156 67.46875 649.589844 68.023438 C 649.589844 69.394531 649.339844 71.519531 649.339844 72.332031 C 651.617188 72.886719 654.960938 75.167969 657.339844 78.460938 C 656.632813 79.121094 655.265625 79.273438 653.746094 79.273438 L 641.890625 79.273438 L 641.9375 74.914063 C 641.988281 69.039063 639.101563 62.804688 631.960938 62.804688 C 625.324219 62.804688 621.777344 67.820313 621.777344 73.953125 C 621.777344 83.019531 629.984375 84.238281 636.164063 84.386719 C 639.253906 84.238281 648.171875 84.386719 647.867188 84.339844 L 652.328125 84.339844 C 656.328125 84.339844 660.027344 82.566406 661.140625 81.601563 C 665.195313 84.59375 670.714844 84.339844 672.996094 84.339844 L 675.378906 84.339844 L 675.378906 84.320313 C 678.695313 84.234375 681.234375 83.238281 682.980469 81.347656 C 684.804688 83.171875 687.285156 84.289063 690.324219 84.289063 C 696.453125 84.289063 700.050781 79.371094 700.050781 73.902344 C 700.050781 67.773438 696.453125 62.804688 689.867188 62.804688 "/>
<path style=" stroke:none;fill-rule:nonzero;fill:rgb(0%,0%,0%);fill-opacity:1;" d="M 724.066406 62.808594 C 716.773438 62.808594 715.859375 65.441406 715.859375 68.835938 L 715.859375 70.761719 C 718.089844 68.683594 720.066406 67.925781 722.902344 67.925781 C 729.03125 67.925781 731.464844 76.03125 732.222656 79.273438 L 713.175781 79.273438 C 711.148438 79.070313 710.183594 78.105469 709.984375 76.382813 L 709.984375 56.675781 C 709.984375 54.902344 708.261719 53.738281 706.742188 53.738281 L 704.105469 53.738281 L 704.105469 75.726563 C 704.105469 80.488281 706.945313 84.136719 712.769531 84.339844 L 729.335938 84.339844 C 732.933594 84.589844 736.277344 85.554688 737.238281 87.578125 C 737.542969 86.160156 737.644531 84.539063 737.644531 82.816406 C 737.644531 74.105469 733.996094 62.808594 724.066406 62.808594 "/>
<path style=" stroke:none;fill-rule:nonzero;fill:rgb(0%,0%,0%);fill-opacity:1;" d="M 725.890625 87.378906 C 724.21875 87.378906 723.003906 88.695313 723.003906 90.265625 C 723.003906 91.9375 724.21875 93.203125 725.890625 93.203125 C 727.460938 93.203125 728.777344 91.9375 728.777344 90.265625 C 728.777344 88.695313 727.460938 87.378906 725.890625 87.378906 "/>
<path style=" stroke:none;fill-rule:nonzero;fill:rgb(0%,0%,0%);fill-opacity:1;" d="M 124.976563 128.285156 C 124.976563 129.90625 124.785156 131.441406 124.40625 132.890625 C 124.027344 134.339844 123.421875 135.609375 122.601563 136.703125 C 121.777344 137.796875 120.714844 138.660156 119.414063 139.300781 C 118.113281 139.9375 116.539063 140.257813 114.699219 140.257813 C 112.855469 140.257813 111.292969 139.9375 110.003906 139.300781 C 108.714844 138.660156 107.65625 137.796875 106.835938 136.703125 C 106.011719 135.609375 105.410156 134.339844 105.03125 132.890625 C 104.648438 131.441406 104.460938 129.90625 104.460938 128.285156 L 104.460938 116.277344 L 106.152344 116.277344 C 106.597656 116.277344 107 116.3125 107.371094 116.386719 C 107.738281 116.460938 108.058594 116.609375 108.328125 116.828125 C 108.597656 117.050781 108.804688 117.351563 108.953125 117.730469 C 109.101563 118.113281 109.175781 118.597656 109.175781 119.1875 L 109.175781 128.285156 C 109.175781 130.175781 109.347656 131.710938 109.6875 132.890625 C 110.035156 134.070313 110.46875 134.988281 110.996094 135.652344 C 111.527344 136.316406 112.113281 136.761719 112.765625 136.996094 C 113.414063 137.230469 114.0625 137.347656 114.699219 137.347656 C 115.339844 137.347656 115.980469 137.230469 116.632813 136.996094 C 117.285156 136.761719 117.878906 136.316406 118.421875 135.652344 C 118.960938 134.988281 119.394531 134.070313 119.726563 132.890625 C 120.058594 131.710938 120.226563 130.175781 120.226563 128.285156 L 120.226563 116.277344 L 121.921875 116.277344 C 122.363281 116.277344 122.769531 116.3125 123.136719 116.386719 C 123.503906 116.460938 123.828125 116.609375 124.113281 116.828125 C 124.394531 117.050781 124.609375 117.351563 124.757813 117.730469 C 124.902344 118.113281 124.976563 118.597656 124.976563 119.1875 "/>
<path style=" stroke:none;fill-rule:nonzero;fill:rgb(0%,0%,0%);fill-opacity:1;" d="M 148.996094 140 L 147.226563 140 C 146.957031 140 146.699219 139.988281 146.453125 139.960938 C 146.207031 139.9375 145.972656 139.890625 145.753906 139.816406 C 144.96875 139.59375 144.222656 139.199219 143.523438 138.636719 C 142.824219 138.070313 142.058594 137.152344 141.222656 135.871094 C 141 135.503906 140.707031 135.039063 140.339844 134.472656 C 139.96875 133.910156 139.5625 133.28125 139.121094 132.59375 C 138.679688 131.90625 138.207031 131.183594 137.703125 130.421875 C 137.199219 129.660156 136.714844 128.910156 136.25 128.175781 C 135.117188 126.453125 133.929688 124.601563 132.675781 122.613281 L 132.675781 140 L 131.351563 140 C 130.90625 140 130.503906 139.960938 130.132813 139.890625 C 129.765625 139.816406 129.441406 139.667969 129.15625 139.445313 C 128.875 139.226563 128.660156 138.925781 128.511719 138.542969 C 128.367188 138.164063 128.292969 137.679688 128.292969 137.089844 L 128.292969 116.277344 L 130.058594 116.277344 C 130.550781 116.277344 131.042969 116.335938 131.535156 116.460938 C 132.320313 116.679688 133.0625 117.082031 133.761719 117.65625 C 134.464844 118.234375 135.242188 119.160156 136.101563 120.4375 C 136.324219 120.808594 136.617188 121.273438 136.984375 121.839844 C 137.355469 122.402344 137.757813 123.023438 138.199219 123.699219 C 138.644531 124.375 139.109375 125.09375 139.601563 125.851563 C 140.09375 126.613281 140.582031 127.363281 141.074219 128.101563 C 142.203125 129.820313 143.394531 131.675781 144.648438 133.664063 L 144.648438 116.277344 L 145.9375 116.277344 C 146.378906 116.277344 146.785156 116.3125 147.152344 116.386719 C 147.519531 116.460938 147.839844 116.609375 148.109375 116.828125 C 148.378906 117.050781 148.589844 117.351563 148.738281 117.730469 C 148.882813 118.113281 148.957031 118.597656 148.957031 119.1875 "/>
<path style=" stroke:none;fill-rule:nonzero;fill:rgb(0%,0%,0%);fill-opacity:1;" d="M 157.0625 140 L 155.734375 140 C 155.292969 140 154.890625 139.960938 154.519531 139.890625 C 154.152344 139.816406 153.824219 139.667969 153.542969 139.445313 C 153.261719 139.226563 153.046875 138.925781 152.898438 138.542969 C 152.753906 138.164063 152.679688 137.679688 152.679688 137.089844 L 152.679688 116.277344 L 153.96875 116.277344 C 154.410156 116.277344 154.816406 116.3125 155.183594 116.386719 C 155.550781 116.460938 155.878906 116.609375 156.160156 116.828125 C 156.441406 117.050781 156.65625 117.351563 156.804688 117.730469 C 156.953125 118.113281 157.023438 118.597656 157.023438 119.1875 "/>
<path style=" stroke:none;fill-rule:nonzero;fill:rgb(0%,0%,0%);fill-opacity:1;" d="M 170.394531 135.210938 C 171.230469 133.367188 171.996094 131.527344 172.699219 129.683594 C 173.398438 127.84375 174.011719 126.085938 174.539063 124.417969 C 175.066406 122.746094 175.515625 121.207031 175.886719 119.792969 C 176.253906 118.382813 176.535156 117.171875 176.730469 116.164063 L 178.574219 116.164063 C 179.015625 116.164063 179.414063 116.207031 179.769531 116.292969 C 180.128906 116.382813 180.421875 116.535156 180.65625 116.753906 C 180.886719 116.976563 181.042969 117.269531 181.117188 117.640625 C 181.1875 118.007813 181.152344 118.484375 181.003906 119.074219 C 180.21875 122.21875 179.355469 125.054688 178.40625 127.585938 C 177.464844 130.113281 176.570313 132.300781 175.738281 134.140625 C 174.753906 136.277344 173.773438 138.183594 172.789063 139.851563 C 171.953125 140 171.15625 140.023438 170.394531 139.925781 C 169.757813 139.851563 169.101563 139.675781 168.425781 139.390625 C 167.75 139.109375 167.230469 138.613281 166.859375 137.898438 C 166.441406 137.089844 165.9375 136.070313 165.347656 134.84375 C 164.761719 133.613281 164.144531 132.203125 163.507813 130.605469 C 162.871094 129.011719 162.222656 127.242188 161.574219 125.300781 C 160.921875 123.359375 160.328125 121.285156 159.789063 119.074219 C 159.640625 118.484375 159.605469 118.007813 159.675781 117.640625 C 159.75 117.269531 159.902344 116.976563 160.136719 116.753906 C 160.371094 116.535156 160.664063 116.382813 161.019531 116.292969 C 161.378906 116.207031 161.777344 116.164063 162.21875 116.164063 L 164.0625 116.164063 C 164.257813 117.171875 164.539063 118.382813 164.90625 119.792969 C 165.277344 121.207031 165.722656 122.746094 166.253906 124.417969 C 166.78125 126.085938 167.386719 127.84375 168.074219 129.683594 C 168.761719 131.527344 169.535156 133.367188 170.394531 135.210938 "/>
<path style=" stroke:none;fill-rule:nonzero;fill:rgb(0%,0%,0%);fill-opacity:1;" d="M 200.308594 136.941406 C 200.308594 137.382813 200.269531 137.789063 200.199219 138.15625 C 200.125 138.527344 199.976563 138.851563 199.753906 139.132813 C 199.535156 139.414063 199.234375 139.632813 198.851563 139.777344 C 198.472656 139.925781 197.988281 140 197.398438 140 L 193.605469 140 C 191.761719 140 190.214844 139.878906 188.960938 139.632813 C 187.710938 139.386719 186.695313 139.011719 185.921875 138.507813 C 185.148438 138.003906 184.589844 137.359375 184.246094 136.574219 C 183.902344 135.789063 183.730469 134.855469 183.730469 133.773438 L 183.730469 120.03125 C 183.730469 119.199219 183.847656 118.535156 184.082031 118.042969 C 184.3125 117.554688 184.628906 117.179688 185.019531 116.921875 C 185.414063 116.664063 185.867188 116.492188 186.382813 116.40625 C 186.898438 116.320313 187.4375 116.277344 188.003906 116.277344 L 199.496094 116.277344 C 199.496094 116.71875 199.460938 117.121094 199.386719 117.492188 C 199.3125 117.859375 199.164063 118.1875 198.945313 118.46875 C 198.722656 118.75 198.421875 118.964844 198.042969 119.113281 C 197.660156 119.261719 197.175781 119.335938 196.585938 119.335938 L 188.113281 119.335938 L 188.113281 125.742188 L 197.617188 125.742188 C 197.617188 126.183594 197.582031 126.589844 197.507813 126.960938 C 197.433594 127.328125 197.285156 127.652344 197.066406 127.933594 C 196.847656 128.21875 196.542969 128.433594 196.164063 128.578125 C 195.78125 128.726563 195.296875 128.800781 194.710938 128.800781 L 188.113281 128.800781 L 188.113281 133.625 C 188.113281 134.042969 188.132813 134.449219 188.171875 134.84375 C 188.207031 135.234375 188.386719 135.585938 188.703125 135.890625 C 189.023438 136.199219 189.546875 136.449219 190.269531 136.648438 C 190.992188 136.84375 192.042969 136.941406 193.421875 136.941406 "/>
<path style=" stroke:none;fill-rule:nonzero;fill:rgb(0%,0%,0%);fill-opacity:1;" d="M 207.640625 127.328125 L 211.984375 127.328125 C 213.582031 127.328125 214.699219 127.007813 215.339844 126.367188 C 215.976563 125.730469 216.320313 124.820313 216.371094 123.644531 C 216.394531 122.808594 216.289063 122.109375 216.054688 121.542969 C 215.824219 120.980469 215.503906 120.523438 215.097656 120.179688 C 214.691406 119.835938 214.226563 119.585938 213.699219 119.425781 C 213.171875 119.265625 212.636719 119.160156 212.097656 119.113281 C 210.792969 119.015625 209.308594 119.171875 207.640625 119.589844 Z M 219.980469 133.257813 C 220.175781 133.652344 220.464844 134.222656 220.84375 134.96875 C 221.226563 135.71875 221.601563 136.460938 221.96875 137.199219 C 222.410156 138.082031 222.878906 139.015625 223.367188 140 L 220.273438 140 C 219.734375 140 219.273438 139.894531 218.894531 139.683594 C 218.511719 139.476563 218.199219 139.238281 217.953125 138.96875 C 217.707031 138.695313 217.523438 138.433594 217.402344 138.175781 C 217.277344 137.917969 217.191406 137.738281 217.144531 137.640625 C 217.09375 137.542969 216.988281 137.335938 216.828125 137.015625 C 216.671875 136.695313 216.480469 136.308594 216.257813 135.855469 C 216.039063 135.402344 215.804688 134.898438 215.558594 134.34375 C 215.3125 133.792969 215.066406 133.234375 214.820313 132.667969 C 214.476563 131.859375 213.988281 131.316406 213.347656 131.046875 C 212.710938 130.777344 212.035156 130.617188 211.324219 130.570313 L 207.640625 130.570313 L 207.640625 140 L 206.3125 140 C 205.871094 140 205.464844 139.960938 205.097656 139.886719 C 204.730469 139.8125 204.402344 139.667969 204.121094 139.445313 C 203.839844 139.226563 203.625 138.925781 203.476563 138.542969 C 203.328125 138.164063 203.253906 137.679688 203.253906 137.089844 L 203.253906 117.417969 C 204.113281 117.171875 205.046875 116.953125 206.054688 116.753906 C 206.914063 116.605469 207.925781 116.476563 209.09375 116.367188 C 210.261719 116.257813 211.542969 116.226563 212.945313 116.277344 C 214.539063 116.351563 215.890625 116.601563 216.996094 117.03125 C 218.101563 117.460938 218.992188 118.007813 219.664063 118.671875 C 220.34375 119.332031 220.828125 120.082031 221.121094 120.917969 C 221.414063 121.753906 221.5625 122.609375 221.5625 123.496094 C 221.5625 124.820313 221.121094 126.035156 220.238281 127.144531 C 219.351563 128.246094 218.160156 129.109375 216.664063 129.722656 C 217.132813 129.941406 217.535156 130.195313 217.878906 130.476563 C 218.222656 130.757813 218.523438 131.058594 218.78125 131.378906 C 219.039063 131.699219 219.265625 132.023438 219.464844 132.355469 C 219.660156 132.6875 219.832031 132.988281 219.980469 133.257813 "/>
<path style=" stroke:none;fill-rule:nonzero;fill:rgb(0%,0%,0%);fill-opacity:1;" d="M 243.777344 133.808594 C 243.652344 134.84375 243.359375 135.726563 242.890625 136.460938 C 242.425781 137.199219 241.847656 137.8125 241.160156 138.304688 C 240.472656 138.796875 239.71875 139.183594 238.894531 139.464844 C 238.070313 139.746094 237.257813 139.949219 236.445313 140.070313 C 235.636719 140.195313 234.855469 140.261719 234.105469 140.277344 C 233.355469 140.285156 232.710938 140.269531 232.171875 140.21875 C 231.238281 140.144531 230.355469 140.015625 229.519531 139.832031 C 228.683594 139.648438 227.949219 139.457031 227.308594 139.261719 C 226.546875 139.042969 225.847656 138.796875 225.210938 138.527344 C 225.285156 137.59375 225.503906 136.976563 225.871094 136.683594 C 226.242188 136.390625 226.730469 136.265625 227.347656 136.316406 C 227.960938 136.363281 228.683594 136.511719 229.519531 136.757813 C 230.355469 137.003906 231.277344 137.175781 232.28125 137.273438 C 233.140625 137.347656 233.953125 137.328125 234.714844 137.21875 C 235.476563 137.109375 236.152344 136.90625 236.738281 136.609375 C 237.328125 136.316406 237.8125 135.929688 238.195313 135.449219 C 238.574219 134.972656 238.804688 134.398438 238.878906 133.738281 C 238.949219 132.777344 238.65625 132.011719 237.992188 131.433594 C 237.328125 130.859375 236.480469 130.355469 235.449219 129.925781 C 234.417969 129.492188 233.308594 129.097656 232.117188 128.726563 C 230.925781 128.359375 229.832031 127.90625 228.839844 127.363281 C 227.84375 126.824219 227.050781 126.140625 226.464844 125.320313 C 225.871094 124.496094 225.664063 123.410156 225.835938 122.058594 C 226.007813 120.734375 226.46875 119.679688 227.21875 118.890625 C 227.96875 118.105469 228.839844 117.511719 229.832031 117.105469 C 230.828125 116.699219 231.859375 116.449219 232.925781 116.347656 C 233.996094 116.25 234.933594 116.238281 235.746094 116.3125 C 236.652344 116.410156 237.53125 116.546875 238.378906 116.71875 C 239.226563 116.890625 239.96875 117.074219 240.609375 117.269531 C 241.367188 117.492188 242.070313 117.738281 242.707031 118.007813 C 242.632813 118.941406 242.414063 119.550781 242.046875 119.828125 C 241.675781 120.113281 241.183594 120.230469 240.570313 120.179688 C 239.957031 120.132813 239.230469 119.988281 238.398438 119.757813 C 237.5625 119.523438 236.640625 119.359375 235.636719 119.261719 C 234.898438 119.1875 234.1875 119.1875 233.5 119.261719 C 232.8125 119.332031 232.203125 119.480469 231.675781 119.699219 C 231.148438 119.921875 230.734375 120.230469 230.441406 120.621094 C 230.144531 121.015625 230.023438 121.507813 230.074219 122.097656 C 230.144531 122.785156 230.558594 123.335938 231.308594 123.753906 C 232.054688 124.171875 232.964844 124.5625 234.03125 124.933594 C 235.101563 125.300781 236.242188 125.6875 237.457031 126.09375 C 238.675781 126.5 239.777344 127.019531 240.773438 127.65625 C 241.769531 128.296875 242.558594 129.109375 243.148438 130.089844 C 243.738281 131.070313 243.945313 132.3125 243.777344 133.808594 "/>
<path style=" stroke:none;fill-rule:nonzero;fill:rgb(0%,0%,0%);fill-opacity:1;" d="M 251.179688 140 L 249.855469 140 C 249.410156 140 249.007813 139.960938 248.636719 139.890625 C 248.269531 139.816406 247.945313 139.667969 247.660156 139.445313 C 247.378906 139.226563 247.164063 138.925781 247.019531 138.542969 C 246.871094 138.164063 246.796875 137.679688 246.796875 137.089844 L 246.796875 116.277344 L 248.085938 116.277344 C 248.527344 116.277344 248.933594 116.3125 249.300781 116.386719 C 249.671875 116.460938 249.996094 116.609375 250.277344 116.828125 C 250.558594 117.050781 250.773438 117.351563 250.921875 117.730469 C 251.070313 118.113281 251.144531 118.597656 251.144531 119.1875 "/>
<path style=" stroke:none;fill-rule:nonzero;fill:rgb(0%,0%,0%);fill-opacity:1;" d="M 272.617188 116.277344 C 272.617188 116.71875 272.582031 117.121094 272.507813 117.492188 C 272.433594 117.859375 272.292969 118.1875 272.085938 118.46875 C 271.875 118.75 271.582031 118.964844 271.199219 119.113281 C 270.820313 119.261719 270.324219 119.335938 269.710938 119.335938 L 265.179688 119.335938 L 265.214844 140 L 263.890625 140 C 263.445313 140 263.039063 139.960938 262.671875 139.890625 C 262.304688 139.816406 261.980469 139.667969 261.695313 139.445313 C 261.414063 139.226563 261.199219 138.925781 261.050781 138.542969 C 260.90625 138.164063 260.832031 137.679688 260.832031 137.089844 L 260.832031 119.335938 L 253.390625 119.335938 C 253.390625 118.890625 253.425781 118.484375 253.5 118.117188 C 253.574219 117.75 253.722656 117.425781 253.941406 117.140625 C 254.164063 116.859375 254.464844 116.644531 254.84375 116.496094 C 255.226563 116.351563 255.710938 116.277344 256.300781 116.277344 "/>
<path style=" stroke:none;fill-rule:nonzero;fill:rgb(0%,0%,0%);fill-opacity:1;" d="M 287.28125 109.386719 C 287.671875 109.78125 287.769531 110.234375 287.574219 110.75 C 287.378906 111.265625 286.9375 111.757813 286.246094 112.222656 C 285.5625 112.691406 284.671875 113.078125 283.578125 113.382813 C 282.484375 113.691406 281.238281 113.820313 279.839844 113.769531 C 280.355469 113.351563 280.941406 112.808594 281.605469 112.132813 C 282.269531 111.457031 282.945313 110.84375 283.632813 110.289063 C 284.320313 109.738281 284.984375 109.339844 285.621094 109.09375 C 286.261719 108.847656 286.8125 108.945313 287.28125 109.386719 M 291.40625 136.941406 C 291.40625 137.382813 291.367188 137.789063 291.296875 138.15625 C 291.222656 138.523438 291.074219 138.851563 290.851563 139.132813 C 290.632813 139.414063 290.328125 139.628906 289.949219 139.777344 C 289.570313 139.925781 289.085938 140 288.496094 140 L 284.703125 140 C 282.859375 140 281.3125 139.875 280.058594 139.628906 C 278.808594 139.386719 277.796875 139.011719 277.019531 138.507813 C 276.246094 138.003906 275.6875 137.359375 275.34375 136.574219 C 275 135.785156 274.828125 134.855469 274.828125 133.773438 L 274.828125 120.03125 C 274.828125 119.199219 274.945313 118.535156 275.179688 118.042969 C 275.410156 117.554688 275.726563 117.179688 276.117188 116.921875 C 276.511719 116.660156 276.964844 116.492188 277.480469 116.40625 C 277.996094 116.320313 278.535156 116.273438 279.101563 116.273438 L 290.597656 116.273438 C 290.597656 116.71875 290.558594 117.121094 290.484375 117.492188 C 290.410156 117.859375 290.265625 118.1875 290.042969 118.46875 C 289.820313 118.75 289.519531 118.964844 289.140625 119.113281 C 288.757813 119.257813 288.273438 119.332031 287.683594 119.332031 L 279.214844 119.332031 L 279.214844 125.742188 L 288.714844 125.742188 C 288.714844 126.183594 288.679688 126.589844 288.605469 126.957031 C 288.53125 127.328125 288.382813 127.652344 288.164063 127.933594 C 287.941406 128.21875 287.640625 128.433594 287.261719 128.578125 C 286.878906 128.726563 286.394531 128.800781 285.808594 128.800781 L 279.214844 128.800781 L 279.214844 133.625 C 279.214844 134.042969 279.230469 134.449219 279.269531 134.839844 C 279.304688 135.234375 279.480469 135.585938 279.800781 135.890625 C 280.121094 136.199219 280.644531 136.449219 281.367188 136.648438 C 282.089844 136.84375 283.140625 136.941406 284.519531 136.941406 "/>
<path style=" stroke:none;fill-rule:nonzero;fill:rgb(0%,0%,0%);fill-opacity:1;" d="M 322.496094 140 L 321.167969 140 C 320.726563 140 320.324219 139.960938 319.953125 139.890625 C 319.585938 139.816406 319.257813 139.667969 318.976563 139.445313 C 318.695313 139.226563 318.480469 138.925781 318.332031 138.542969 C 318.183594 138.164063 318.113281 137.679688 318.113281 137.089844 L 318.113281 128.800781 L 307.171875 128.800781 L 307.207031 140 L 305.882813 140 C 305.441406 140 305.035156 139.960938 304.667969 139.890625 C 304.296875 139.816406 303.972656 139.667969 303.691406 139.445313 C 303.40625 139.226563 303.191406 138.925781 303.046875 138.542969 C 302.898438 138.164063 302.824219 137.679688 302.824219 137.089844 L 302.824219 116.277344 L 304.113281 116.277344 C 304.554688 116.277344 304.960938 116.3125 305.328125 116.386719 C 305.699219 116.460938 306.023438 116.609375 306.304688 116.828125 C 306.589844 117.050781 306.804688 117.351563 306.949219 117.730469 C 307.097656 118.113281 307.171875 118.597656 307.171875 119.1875 L 307.171875 125.742188 L 318.113281 125.742188 L 318.113281 116.277344 L 319.402344 116.277344 C 319.84375 116.277344 320.25 116.3125 320.617188 116.386719 C 320.984375 116.460938 321.3125 116.609375 321.59375 116.828125 C 321.875 117.050781 322.089844 117.351563 322.238281 117.730469 C 322.386719 118.113281 322.460938 118.597656 322.460938 119.1875 "/>
<path style=" stroke:none;fill-rule:nonzero;fill:rgb(0%,0%,0%);fill-opacity:1;" d="M 340.027344 131.121094 C 339.511719 129.425781 339.011719 127.886719 338.519531 126.5 C 338.027344 125.109375 337.585938 123.925781 337.191406 122.945313 C 336.75 121.789063 336.308594 120.769531 335.867188 119.886719 C 335.449219 120.769531 335.007813 121.789063 334.539063 122.945313 C 334.121094 123.925781 333.664063 125.109375 333.160156 126.5 C 332.65625 127.886719 332.15625 129.425781 331.667969 131.121094 Z M 346.476563 137.089844 C 346.621094 137.65625 346.660156 138.125 346.585938 138.507813 C 346.511719 138.886719 346.359375 139.1875 346.128906 139.410156 C 345.894531 139.632813 345.597656 139.785156 345.242188 139.871094 C 344.886719 139.957031 344.488281 140 344.046875 140 L 342.203125 140 C 342.007813 138.96875 341.796875 137.96875 341.578125 136.996094 C 341.355469 136.027344 341.132813 135.085938 340.914063 134.179688 L 330.78125 134.179688 C 330.5625 135.085938 330.339844 136.027344 330.121094 136.996094 C 329.898438 137.96875 329.691406 138.96875 329.496094 140 L 327.652344 140 C 327.210938 140 326.8125 139.957031 326.453125 139.871094 C 326.097656 139.785156 325.804688 139.632813 325.570313 139.410156 C 325.339844 139.1875 325.183594 138.886719 325.109375 138.507813 C 325.035156 138.125 325.074219 137.65625 325.222656 137.089844 C 325.761719 134.878906 326.355469 132.804688 327.007813 130.863281 C 327.65625 128.925781 328.308594 127.15625 328.960938 125.558594 C 329.609375 123.960938 330.230469 122.550781 330.820313 121.320313 C 331.410156 120.097656 331.914063 119.074219 332.328125 118.265625 C 332.699219 117.554688 333.214844 117.050781 333.878906 116.757813 C 334.539063 116.460938 335.191406 116.277344 335.828125 116.203125 C 336.589844 116.105469 337.390625 116.128906 338.222656 116.277344 C 339.207031 117.972656 340.1875 119.886719 341.171875 122.023438 C 342.007813 123.863281 342.902344 126.050781 343.859375 128.578125 C 344.816406 131.109375 345.6875 133.945313 346.476563 137.089844 "/>
<path style=" stroke:none;fill-rule:nonzero;fill:rgb(0%,0%,0%);fill-opacity:1;" d="M 367.03125 133.808594 C 366.90625 134.84375 366.613281 135.726563 366.148438 136.460938 C 365.679688 137.199219 365.101563 137.8125 364.414063 138.304688 C 363.726563 138.796875 362.972656 139.183594 362.152344 139.464844 C 361.328125 139.746094 360.511719 139.949219 359.699219 140.070313 C 358.890625 140.195313 358.109375 140.261719 357.363281 140.277344 C 356.613281 140.285156 355.96875 140.269531 355.425781 140.21875 C 354.492188 140.144531 353.609375 140.015625 352.773438 139.832031 C 351.941406 139.648438 351.203125 139.457031 350.566406 139.261719 C 349.804688 139.042969 349.105469 138.796875 348.464844 138.527344 C 348.539063 137.59375 348.761719 136.976563 349.128906 136.683594 C 349.496094 136.390625 349.988281 136.265625 350.601563 136.316406 C 351.214844 136.363281 351.941406 136.511719 352.773438 136.757813 C 353.609375 137.003906 354.53125 137.175781 355.539063 137.273438 C 356.398438 137.347656 357.207031 137.328125 357.96875 137.21875 C 358.730469 137.109375 359.40625 136.90625 359.996094 136.609375 C 360.585938 136.316406 361.070313 135.929688 361.449219 135.449219 C 361.832031 134.972656 362.058594 134.398438 362.132813 133.738281 C 362.207031 132.777344 361.910156 132.011719 361.246094 131.433594 C 360.585938 130.859375 359.738281 130.355469 358.707031 129.925781 C 357.675781 129.492188 356.5625 129.097656 355.371094 128.726563 C 354.179688 128.359375 353.089844 127.90625 352.09375 127.363281 C 351.101563 126.824219 350.308594 126.140625 349.71875 125.320313 C 349.128906 124.496094 348.917969 123.410156 349.09375 122.058594 C 349.261719 120.734375 349.722656 119.679688 350.472656 118.890625 C 351.222656 118.105469 352.09375 117.511719 353.089844 117.105469 C 354.082031 116.699219 355.113281 116.449219 356.183594 116.347656 C 357.25 116.25 358.191406 116.238281 359 116.3125 C 359.910156 116.410156 360.789063 116.546875 361.636719 116.71875 C 362.480469 116.890625 363.226563 117.074219 363.863281 117.269531 C 364.625 117.492188 365.324219 117.738281 365.964844 118.007813 C 365.890625 118.941406 365.667969 119.550781 365.300781 119.828125 C 364.933594 120.113281 364.441406 120.230469 363.824219 120.179688 C 363.214844 120.132813 362.488281 119.988281 361.652344 119.757813 C 360.816406 119.523438 359.898438 119.359375 358.890625 119.261719 C 358.152344 119.1875 357.441406 119.1875 356.753906 119.261719 C 356.066406 119.332031 355.457031 119.480469 354.929688 119.699219 C 354.402344 119.921875 353.992188 120.230469 353.695313 120.621094 C 353.402344 121.015625 353.277344 121.507813 353.328125 122.097656 C 353.402344 122.785156 353.8125 123.335938 354.5625 123.753906 C 355.3125 124.171875 356.21875 124.5625 357.289063 124.933594 C 358.355469 125.300781 359.496094 125.6875 360.714844 126.09375 C 361.929688 126.5 363.035156 127.019531 364.027344 127.65625 C 365.023438 128.296875 365.816406 129.109375 366.40625 130.089844 C 366.996094 131.070313 367.203125 132.3125 367.03125 133.808594 "/>
<path style=" stroke:none;fill-rule:nonzero;fill:rgb(0%,0%,0%);fill-opacity:1;" d="M 387.878906 133.808594 C 387.757813 134.84375 387.464844 135.726563 386.996094 136.460938 C 386.53125 137.199219 385.953125 137.8125 385.265625 138.304688 C 384.578125 138.796875 383.824219 139.183594 383 139.464844 C 382.175781 139.746094 381.359375 139.949219 380.550781 140.070313 C 379.738281 140.195313 378.960938 140.261719 378.210938 140.277344 C 377.464844 140.285156 376.816406 140.269531 376.277344 140.21875 C 375.34375 140.144531 374.460938 140.015625 373.625 139.832031 C 372.789063 139.648438 372.054688 139.457031 371.414063 139.261719 C 370.652344 139.042969 369.953125 138.796875 369.316406 138.527344 C 369.390625 137.59375 369.609375 136.976563 369.976563 136.683594 C 370.347656 136.390625 370.835938 136.265625 371.453125 136.316406 C 372.066406 136.363281 372.789063 136.511719 373.625 136.757813 C 374.460938 137.003906 375.378906 137.175781 376.386719 137.273438 C 377.246094 137.347656 378.058594 137.328125 378.820313 137.21875 C 379.578125 137.109375 380.257813 136.90625 380.84375 136.609375 C 381.433594 136.316406 381.917969 135.929688 382.300781 135.449219 C 382.679688 134.972656 382.910156 134.398438 382.980469 133.738281 C 383.054688 132.777344 382.761719 132.011719 382.097656 131.433594 C 381.433594 130.859375 380.585938 130.355469 379.554688 129.925781 C 378.523438 129.492188 377.414063 129.097656 376.222656 128.726563 C 375.03125 128.359375 373.9375 127.90625 372.941406 127.363281 C 371.949219 126.824219 371.15625 126.140625 370.566406 125.320313 C 369.976563 124.496094 369.769531 123.410156 369.941406 122.058594 C 370.113281 120.734375 370.574219 119.679688 371.324219 118.890625 C 372.070313 118.105469 372.941406 117.511719 373.9375 117.105469 C 374.933594 116.699219 375.964844 116.449219 377.03125 116.347656 C 378.101563 116.25 379.039063 116.238281 379.851563 116.3125 C 380.757813 116.410156 381.636719 116.546875 382.484375 116.71875 C 383.332031 116.890625 384.074219 117.074219 384.714844 117.269531 C 385.476563 117.492188 386.171875 117.738281 386.8125 118.007813 C 386.738281 118.941406 386.519531 119.550781 386.148438 119.828125 C 385.78125 120.113281 385.289063 120.230469 384.675781 120.179688 C 384.0625 120.132813 383.335938 119.988281 382.503906 119.757813 C 381.667969 119.523438 380.746094 119.359375 379.738281 119.261719 C 379.003906 119.1875 378.289063 119.1875 377.605469 119.261719 C 376.914063 119.332031 376.308594 119.480469 375.78125 119.699219 C 375.253906 119.921875 374.839844 120.230469 374.546875 120.621094 C 374.253906 121.015625 374.128906 121.507813 374.175781 122.097656 C 374.253906 122.785156 374.664063 123.335938 375.410156 123.753906 C 376.160156 124.171875 377.070313 124.5625 378.136719 124.933594 C 379.203125 125.300781 380.347656 125.6875 381.5625 126.09375 C 382.78125 126.5 383.882813 127.019531 384.878906 127.65625 C 385.871094 128.296875 386.664063 129.109375 387.253906 130.089844 C 387.84375 131.070313 388.050781 132.3125 387.878906 133.808594 "/>
<path style=" stroke:none;fill-rule:nonzero;fill:rgb(0%,0%,0%);fill-opacity:1;" d="M 404.753906 131.121094 C 404.234375 129.425781 403.734375 127.886719 403.242188 126.5 C 402.75 125.109375 402.308594 123.925781 401.914063 122.945313 C 401.472656 121.789063 401.03125 120.769531 400.589844 119.886719 C 400.171875 120.769531 399.730469 121.789063 399.261719 122.945313 C 398.84375 123.925781 398.386719 125.109375 397.882813 126.5 C 397.378906 127.886719 396.882813 129.425781 396.390625 131.121094 Z M 411.199219 137.089844 C 411.347656 137.65625 411.382813 138.125 411.308594 138.507813 C 411.234375 138.886719 411.082031 139.1875 410.847656 139.410156 C 410.613281 139.632813 410.320313 139.785156 409.964844 139.871094 C 409.609375 139.957031 409.210938 140 408.765625 140 L 406.925781 140 C 406.730469 138.96875 406.519531 137.96875 406.300781 136.996094 C 406.078125 136.027344 405.855469 135.085938 405.636719 134.179688 L 395.507813 134.179688 C 395.285156 135.085938 395.0625 136.027344 394.84375 136.996094 C 394.621094 137.96875 394.414063 138.96875 394.21875 140 L 392.375 140 C 391.933594 140 391.535156 139.957031 391.179688 139.871094 C 390.820313 139.785156 390.527344 139.632813 390.292969 139.410156 C 390.058594 139.1875 389.90625 138.886719 389.832031 138.507813 C 389.757813 138.125 389.796875 137.65625 389.945313 137.089844 C 390.484375 134.878906 391.078125 132.804688 391.730469 130.863281 C 392.382813 128.925781 393.03125 127.15625 393.683594 125.558594 C 394.332031 123.960938 394.953125 122.550781 395.542969 121.320313 C 396.132813 120.097656 396.636719 119.074219 397.054688 118.265625 C 397.421875 117.554688 397.9375 117.050781 398.601563 116.757813 C 399.261719 116.460938 399.914063 116.277344 400.554688 116.203125 C 401.3125 116.105469 402.113281 116.128906 402.945313 116.277344 C 403.929688 117.972656 404.910156 119.886719 405.894531 122.023438 C 406.730469 123.863281 407.625 126.050781 408.582031 128.578125 C 409.539063 131.109375 410.410156 133.945313 411.199219 137.089844 "/>
<path style=" stroke:none;fill-rule:nonzero;fill:rgb(0%,0%,0%);fill-opacity:1;" d="M 434.628906 140 L 432.859375 140 C 432.589844 140 432.332031 139.988281 432.085938 139.960938 C 431.839844 139.9375 431.605469 139.890625 431.386719 139.816406 C 430.597656 139.59375 429.855469 139.199219 429.15625 138.636719 C 428.457031 138.070313 427.6875 137.152344 426.855469 135.871094 C 426.632813 135.503906 426.339844 135.039063 425.96875 134.472656 C 425.601563 133.910156 425.195313 133.28125 424.753906 132.59375 C 424.3125 131.90625 423.839844 131.183594 423.335938 130.421875 C 422.832031 129.660156 422.347656 128.910156 421.882813 128.175781 C 420.75 126.453125 419.558594 124.601563 418.308594 122.613281 L 418.308594 140 L 416.980469 140 C 416.539063 140 416.136719 139.960938 415.765625 139.890625 C 415.398438 139.816406 415.070313 139.667969 414.789063 139.445313 C 414.507813 139.226563 414.292969 138.925781 414.144531 138.542969 C 413.996094 138.164063 413.925781 137.679688 413.925781 137.089844 L 413.925781 116.277344 L 415.691406 116.277344 C 416.183594 116.277344 416.675781 116.335938 417.164063 116.460938 C 417.949219 116.679688 418.695313 117.082031 419.394531 117.65625 C 420.09375 118.234375 420.875 119.160156 421.734375 120.4375 C 421.953125 120.808594 422.25 121.273438 422.617188 121.839844 C 422.984375 122.402344 423.390625 123.023438 423.835938 123.699219 C 424.277344 124.375 424.742188 125.09375 425.234375 125.851563 C 425.726563 126.613281 426.214844 127.363281 426.707031 128.101563 C 427.835938 129.820313 429.027344 131.675781 430.28125 133.664063 L 430.28125 116.277344 L 431.570313 116.277344 C 432.011719 116.277344 432.417969 116.3125 432.785156 116.386719 C 433.152344 116.460938 433.472656 116.609375 433.742188 116.828125 C 434.011719 117.050781 434.222656 117.351563 434.367188 117.730469 C 434.515625 118.113281 434.589844 118.597656 434.589844 119.1875 "/>
<path style=" stroke:none;fill-rule:nonzero;fill:rgb(0%,0%,0%);fill-opacity:1;" d="M 451.164063 140 L 449.839844 140 C 449.398438 140 448.992188 139.960938 448.625 139.890625 C 448.257813 139.816406 447.929688 139.667969 447.648438 139.445313 C 447.367188 139.226563 447.152344 138.925781 447.003906 138.542969 C 446.855469 138.164063 446.78125 137.679688 446.78125 137.089844 L 446.78125 116.277344 L 448.070313 116.277344 C 448.515625 116.277344 448.917969 116.3125 449.285156 116.386719 C 449.65625 116.460938 449.980469 116.609375 450.265625 116.828125 C 450.546875 117.050781 450.761719 117.351563 450.90625 117.730469 C 451.054688 118.113281 451.128906 118.597656 451.128906 119.1875 "/>
<path style=" stroke:none;fill-rule:nonzero;fill:rgb(0%,0%,0%);fill-opacity:1;" d="M 459.234375 140 L 457.90625 140 C 457.464844 140 457.058594 139.960938 456.691406 139.890625 C 456.324219 139.816406 455.996094 139.667969 455.714844 139.445313 C 455.433594 139.226563 455.21875 138.925781 455.070313 138.542969 C 454.921875 138.164063 454.847656 137.679688 454.847656 137.089844 L 454.847656 116.277344 L 456.136719 116.277344 C 456.582031 116.277344 456.984375 116.3125 457.355469 116.386719 C 457.722656 116.460938 458.046875 116.609375 458.332031 116.828125 C 458.613281 117.050781 458.828125 117.351563 458.976563 117.730469 C 459.121094 118.113281 459.195313 118.597656 459.195313 119.1875 "/>
<path style=" stroke:none;fill-rule:nonzero;fill:rgb(0%,0%,0%);fill-opacity:1;" d="M 481.074219 137.308594 C 482.207031 137.234375 483.1875 136.960938 484.023438 136.480469 C 484.859375 136.003906 485.546875 135.363281 486.085938 134.566406 C 486.625 133.769531 487.027344 132.835938 487.28125 131.765625 C 487.539063 130.699219 487.671875 129.535156 487.671875 128.285156 C 487.671875 127.253906 487.566406 126.226563 487.355469 125.210938 C 487.148438 124.191406 486.792969 123.261719 486.289063 122.429688 C 485.785156 121.59375 485.109375 120.894531 484.261719 120.328125 C 483.414063 119.761719 482.351563 119.40625 481.074219 119.261719 C 480.191406 119.160156 479.417969 119.136719 478.757813 119.1875 C 478.09375 119.234375 477.539063 119.320313 477.097656 119.445313 C 476.582031 119.566406 476.140625 119.726563 475.773438 119.921875 L 475.773438 133.992188 C 475.773438 134.414063 475.789063 134.828125 475.828125 135.246094 C 475.863281 135.664063 476.046875 136.039063 476.378906 136.371094 C 476.710938 136.703125 477.234375 136.960938 477.945313 137.144531 C 478.65625 137.328125 479.699219 137.382813 481.074219 137.308594 M 481.261719 116.277344 C 483.003906 116.351563 484.589844 116.710938 486.011719 117.363281 C 487.4375 118.015625 488.65625 118.871094 489.679688 119.941406 C 490.695313 121.007813 491.484375 122.261719 492.035156 123.699219 C 492.589844 125.136719 492.863281 126.664063 492.863281 128.285156 C 492.863281 129.90625 492.589844 131.429688 492.035156 132.851563 C 491.484375 134.277344 490.695313 135.523438 489.679688 136.59375 C 488.65625 137.660156 487.4375 138.519531 486.011719 139.171875 C 484.589844 139.820313 483.003906 140.183594 481.261719 140.257813 C 479.441406 140.332031 477.902344 140.25 476.636719 140.019531 C 475.371094 139.785156 474.355469 139.402344 473.578125 138.875 C 472.804688 138.347656 472.246094 137.679688 471.902344 136.867188 C 471.558594 136.058594 471.386719 135.113281 471.386719 134.03125 L 471.386719 117.417969 C 472.273438 117.171875 473.230469 116.953125 474.261719 116.753906 C 475.144531 116.609375 476.183594 116.480469 477.375 116.367188 C 478.566406 116.257813 479.859375 116.226563 481.261719 116.277344 "/>
<path style=" stroke:none;fill-rule:nonzero;fill:rgb(0%,0%,0%);fill-opacity:1;" d="M 512.386719 136.941406 C 512.386719 137.382813 512.351563 137.789063 512.277344 138.15625 C 512.203125 138.527344 512.054688 138.851563 511.835938 139.132813 C 511.613281 139.414063 511.3125 139.632813 510.933594 139.777344 C 510.550781 139.925781 510.066406 140 509.480469 140 L 505.683594 140 C 503.84375 140 502.296875 139.878906 501.042969 139.632813 C 499.789063 139.386719 498.777344 139.011719 498.003906 138.507813 C 497.230469 138.003906 496.671875 137.359375 496.328125 136.574219 C 495.984375 135.789063 495.8125 134.855469 495.8125 133.773438 L 495.8125 120.03125 C 495.8125 119.199219 495.929688 118.535156 496.160156 118.042969 C 496.394531 117.554688 496.707031 117.179688 497.101563 116.921875 C 497.492188 116.664063 497.949219 116.492188 498.464844 116.40625 C 498.980469 116.320313 499.519531 116.277344 500.085938 116.277344 L 511.578125 116.277344 C 511.578125 116.71875 511.539063 117.121094 511.46875 117.492188 C 511.394531 117.859375 511.246094 118.1875 511.023438 118.46875 C 510.804688 118.75 510.503906 118.964844 510.121094 119.113281 C 509.742188 119.261719 509.257813 119.335938 508.667969 119.335938 L 500.195313 119.335938 L 500.195313 125.742188 L 509.699219 125.742188 C 509.699219 126.183594 509.664063 126.589844 509.589844 126.960938 C 509.515625 127.328125 509.367188 127.652344 509.144531 127.933594 C 508.925781 128.21875 508.625 128.433594 508.246094 128.578125 C 507.863281 128.726563 507.378906 128.800781 506.789063 128.800781 L 500.195313 128.800781 L 500.195313 133.625 C 500.195313 134.042969 500.214844 134.449219 500.25 134.84375 C 500.289063 135.234375 500.464844 135.585938 500.785156 135.890625 C 501.105469 136.199219 501.625 136.449219 502.351563 136.648438 C 503.074219 136.84375 504.125 136.941406 505.5 136.941406 "/>
<path style=" stroke:none;fill-rule:nonzero;fill:rgb(0%,0%,0%);fill-opacity:1;" d="M 528.265625 128.285156 C 528.265625 129.316406 528.394531 130.363281 528.652344 131.433594 C 528.910156 132.503906 529.308594 133.472656 529.847656 134.34375 C 530.386719 135.21875 531.070313 135.929688 531.894531 136.480469 C 532.714844 137.03125 533.703125 137.308594 534.859375 137.308594 C 535.890625 137.308594 536.824219 137.230469 537.65625 137.070313 C 538.492188 136.910156 539.21875 136.824219 539.832031 136.8125 C 540.445313 136.800781 540.917969 136.945313 541.25 137.253906 C 541.582031 137.5625 541.746094 138.179688 541.746094 139.113281 C 541.058594 139.335938 540.335938 139.53125 539.574219 139.703125 C 538.910156 139.851563 538.160156 139.980469 537.324219 140.089844 C 536.492188 140.203125 535.609375 140.257813 534.675781 140.257813 C 532.929688 140.257813 531.339844 139.9375 529.902344 139.300781 C 528.46875 138.660156 527.246094 137.796875 526.238281 136.703125 C 525.230469 135.609375 524.453125 134.339844 523.898438 132.890625 C 523.347656 131.441406 523.070313 129.90625 523.070313 128.285156 C 523.070313 126.664063 523.347656 125.125 523.898438 123.660156 C 524.453125 122.199219 525.230469 120.925781 526.238281 119.832031 C 527.246094 118.738281 528.46875 117.871094 529.902344 117.234375 C 531.339844 116.597656 532.929688 116.277344 534.675781 116.277344 C 535.609375 116.277344 536.492188 116.339844 537.324219 116.460938 C 538.160156 116.582031 538.910156 116.71875 539.574219 116.863281 C 540.335938 117.039063 541.058594 117.222656 541.746094 117.417969 C 541.746094 118.375 541.582031 119.007813 541.25 119.316406 C 540.917969 119.621094 540.445313 119.769531 539.832031 119.757813 C 539.21875 119.746094 538.492188 119.660156 537.65625 119.5 C 536.824219 119.339844 535.890625 119.261719 534.859375 119.261719 C 533.703125 119.261719 532.714844 119.535156 531.894531 120.089844 C 531.070313 120.640625 530.386719 121.347656 529.847656 122.207031 C 529.308594 123.066406 528.910156 124.035156 528.652344 125.117188 C 528.394531 126.195313 528.265625 127.253906 528.265625 128.285156 "/>
<path style=" stroke:none;fill-rule:nonzero;fill:rgb(0%,0%,0%);fill-opacity:1;" d="M 558.175781 131.121094 C 557.660156 129.425781 557.15625 127.886719 556.664063 126.5 C 556.175781 125.109375 555.730469 123.925781 555.339844 122.945313 C 554.898438 121.789063 554.457031 120.769531 554.011719 119.886719 C 553.59375 120.769531 553.152344 121.789063 552.6875 122.945313 C 552.269531 123.925781 551.808594 125.109375 551.304688 126.5 C 550.800781 127.886719 550.304688 129.425781 549.8125 131.121094 Z M 564.621094 137.089844 C 564.769531 137.65625 564.808594 138.125 564.734375 138.507813 C 564.660156 138.886719 564.503906 139.1875 564.273438 139.410156 C 564.039063 139.632813 563.742188 139.785156 563.386719 139.871094 C 563.03125 139.957031 562.632813 140 562.191406 140 L 560.347656 140 C 560.152344 138.96875 559.945313 137.96875 559.722656 136.996094 C 559.503906 136.027344 559.28125 135.085938 559.058594 134.179688 L 548.929688 134.179688 C 548.710938 135.085938 548.488281 136.027344 548.265625 136.996094 C 548.046875 137.96875 547.835938 138.96875 547.640625 140 L 545.800781 140 C 545.355469 140 544.957031 139.957031 544.601563 139.871094 C 544.246094 139.785156 543.949219 139.632813 543.71875 139.410156 C 543.484375 139.1875 543.332031 138.886719 543.257813 138.507813 C 543.183594 138.125 543.21875 137.65625 543.367188 137.089844 C 543.90625 134.878906 544.503906 132.804688 545.15625 130.863281 C 545.804688 128.925781 546.457031 127.15625 547.105469 125.558594 C 547.757813 123.960938 548.378906 122.550781 548.96875 121.320313 C 549.554688 120.097656 550.058594 119.074219 550.476563 118.265625 C 550.84375 117.554688 551.359375 117.050781 552.023438 116.757813 C 552.6875 116.460938 553.339844 116.277344 553.976563 116.203125 C 554.738281 116.105469 555.535156 116.128906 556.371094 116.277344 C 557.351563 117.972656 558.335938 119.886719 559.316406 122.023438 C 560.152344 123.863281 561.050781 126.050781 562.007813 128.578125 C 562.964844 131.109375 563.835938 133.945313 564.621094 137.089844 "/>
<path style=" stroke:none;fill-rule:nonzero;fill:rgb(0%,0%,0%);fill-opacity:1;" d="M 585.175781 133.808594 C 585.054688 134.84375 584.757813 135.726563 584.292969 136.460938 C 583.828125 137.199219 583.25 137.8125 582.5625 138.304688 C 581.875 138.796875 581.117188 139.183594 580.296875 139.464844 C 579.472656 139.746094 578.65625 139.949219 577.847656 140.070313 C 577.035156 140.195313 576.257813 140.261719 575.507813 140.277344 C 574.757813 140.285156 574.113281 140.269531 573.574219 140.21875 C 572.640625 140.144531 571.757813 140.015625 570.921875 139.832031 C 570.085938 139.648438 569.351563 139.457031 568.710938 139.261719 C 567.949219 139.042969 567.25 138.796875 566.613281 138.527344 C 566.6875 137.59375 566.90625 136.976563 567.273438 136.683594 C 567.644531 136.390625 568.132813 136.265625 568.746094 136.316406 C 569.363281 136.363281 570.085938 136.511719 570.921875 136.757813 C 571.757813 137.003906 572.675781 137.175781 573.683594 137.273438 C 574.542969 137.347656 575.355469 137.328125 576.117188 137.21875 C 576.875 137.109375 577.554688 136.90625 578.140625 136.609375 C 578.730469 136.316406 579.214844 135.929688 579.597656 135.449219 C 579.976563 134.972656 580.203125 134.398438 580.277344 133.738281 C 580.351563 132.777344 580.058594 132.011719 579.394531 131.433594 C 578.730469 130.859375 577.882813 130.355469 576.851563 129.925781 C 575.820313 129.492188 574.710938 129.097656 573.519531 128.726563 C 572.328125 128.359375 571.234375 127.90625 570.238281 127.363281 C 569.246094 126.824219 568.453125 126.140625 567.863281 125.320313 C 567.273438 124.496094 567.066406 123.410156 567.238281 122.058594 C 567.410156 120.734375 567.871094 119.679688 568.617188 118.890625 C 569.367188 118.105469 570.238281 117.511719 571.234375 117.105469 C 572.230469 116.699219 573.261719 116.449219 574.328125 116.347656 C 575.398438 116.25 576.335938 116.238281 577.148438 116.3125 C 578.054688 116.410156 578.933594 116.546875 579.78125 116.71875 C 580.628906 116.890625 581.371094 117.074219 582.007813 117.269531 C 582.769531 117.492188 583.46875 117.738281 584.109375 118.007813 C 584.035156 118.941406 583.8125 119.550781 583.445313 119.828125 C 583.078125 120.113281 582.585938 120.230469 581.972656 120.179688 C 581.359375 120.132813 580.632813 119.988281 579.800781 119.757813 C 578.964844 119.523438 578.042969 119.359375 577.035156 119.261719 C 576.300781 119.1875 575.585938 119.1875 574.898438 119.261719 C 574.210938 119.332031 573.605469 119.480469 573.078125 119.699219 C 572.546875 119.921875 572.136719 120.230469 571.84375 120.621094 C 571.546875 121.015625 571.425781 121.507813 571.472656 122.097656 C 571.546875 122.785156 571.960938 123.335938 572.707031 123.753906 C 573.457031 124.171875 574.367188 124.5625 575.433594 124.933594 C 576.503906 125.300781 577.644531 125.6875 578.859375 126.09375 C 580.074219 126.5 581.179688 127.019531 582.175781 127.65625 C 583.167969 128.296875 583.960938 129.109375 584.550781 130.089844 C 585.140625 131.070313 585.347656 132.3125 585.175781 133.808594 "/>
<path style=" stroke:none;fill-rule:nonzero;fill:rgb(0%,0%,0%);fill-opacity:1;" d="M 602.050781 131.121094 C 601.53125 129.425781 601.03125 127.886719 600.539063 126.5 C 600.046875 125.109375 599.605469 123.925781 599.214844 122.945313 C 598.769531 121.789063 598.328125 120.769531 597.886719 119.886719 C 597.46875 120.769531 597.027344 121.789063 596.558594 122.945313 C 596.140625 123.925781 595.683594 125.109375 595.179688 126.5 C 594.675781 127.886719 594.179688 129.425781 593.6875 131.121094 Z M 608.496094 137.089844 C 608.644531 137.65625 608.679688 138.125 608.605469 138.507813 C 608.53125 138.886719 608.378906 139.1875 608.144531 139.410156 C 607.910156 139.632813 607.617188 139.785156 607.261719 139.871094 C 606.90625 139.957031 606.507813 140 606.0625 140 L 604.222656 140 C 604.027344 138.96875 603.816406 137.96875 603.597656 136.996094 C 603.375 136.027344 603.152344 135.085938 602.933594 134.179688 L 592.804688 134.179688 C 592.582031 135.085938 592.359375 136.027344 592.140625 136.996094 C 591.917969 137.96875 591.710938 138.96875 591.515625 140 L 589.671875 140 C 589.230469 140 588.832031 139.957031 588.476563 139.871094 C 588.117188 139.785156 587.824219 139.632813 587.589844 139.410156 C 587.355469 139.1875 587.203125 138.886719 587.128906 138.507813 C 587.054688 138.125 587.09375 137.65625 587.242188 137.089844 C 587.78125 134.878906 588.375 132.804688 589.027344 130.863281 C 589.679688 128.925781 590.328125 127.15625 590.980469 125.558594 C 591.628906 123.960938 592.25 122.550781 592.839844 121.320313 C 593.429688 120.097656 593.933594 119.074219 594.351563 118.265625 C 594.71875 117.554688 595.234375 117.050781 595.898438 116.757813 C 596.558594 116.460938 597.210938 116.277344 597.851563 116.203125 C 598.609375 116.105469 599.410156 116.128906 600.242188 116.277344 C 601.226563 117.972656 602.210938 119.886719 603.191406 122.023438 C 604.027344 123.863281 604.921875 126.050781 605.878906 128.578125 C 606.839844 131.109375 607.710938 133.945313 608.496094 137.089844 "/>
<path style=" stroke:none;fill-rule:nonzero;fill:rgb(0%,0%,0%);fill-opacity:1;" d="M 621.316406 136.648438 C 622.910156 136.648438 624.046875 136.304688 624.722656 135.613281 C 625.398438 134.929688 625.734375 133.921875 625.734375 132.59375 C 625.734375 131.515625 625.550781 130.667969 625.183594 130.054688 C 624.8125 129.4375 624.34375 128.984375 623.765625 128.691406 C 623.1875 128.394531 622.550781 128.21875 621.847656 128.15625 C 621.148438 128.09375 620.46875 128.074219 619.804688 128.101563 C 619.214844 128.125 618.65625 128.132813 618.128906 128.117188 C 617.601563 128.105469 617.128906 128.101563 616.710938 128.101563 L 615.382813 128.101563 L 615.382813 128.910156 C 615.335938 130.554688 615.433594 131.890625 615.679688 132.90625 C 615.925781 133.925781 616.304688 134.714844 616.820313 135.265625 C 617.335938 135.816406 617.972656 136.1875 618.734375 136.371094 C 619.496094 136.554688 620.355469 136.648438 621.316406 136.648438 M 622.753906 121.910156 C 622.703125 121.226563 622.445313 120.671875 621.976563 120.253906 C 621.511719 119.835938 620.921875 119.550781 620.210938 119.390625 C 619.496094 119.230469 618.703125 119.199219 617.835938 119.296875 C 616.960938 119.394531 616.097656 119.605469 615.234375 119.921875 L 615.234375 125.078125 L 618.515625 125.078125 C 619.179688 125.078125 619.78125 125.039063 620.320313 124.949219 C 620.859375 124.863281 621.316406 124.699219 621.683594 124.453125 C 622.050781 124.210938 622.332031 123.882813 622.53125 123.476563 C 622.726563 123.070313 622.800781 122.550781 622.753906 121.910156 M 620.726563 116.277344 C 621.734375 116.324219 622.617188 116.511719 623.378906 116.828125 C 624.140625 117.148438 624.769531 117.566406 625.273438 118.082031 C 625.777344 118.597656 626.160156 119.1875 626.417969 119.847656 C 626.675781 120.511719 626.804688 121.199219 626.804688 121.910156 C 626.804688 122.722656 626.667969 123.421875 626.398438 124.011719 C 626.128906 124.601563 625.710938 125.214844 625.144531 125.851563 C 625.859375 126.097656 626.53125 126.40625 627.171875 126.773438 C 627.808594 127.144531 628.363281 127.597656 628.828125 128.136719 C 629.296875 128.679688 629.664063 129.308594 629.933594 130.035156 C 630.203125 130.757813 630.339844 131.613281 630.339844 132.59375 C 630.339844 133.699219 630.125 134.71875 629.695313 135.652344 C 629.265625 136.585938 628.65625 137.394531 627.871094 138.082031 C 627.085938 138.769531 626.140625 139.3125 625.035156 139.703125 C 623.929688 140.097656 622.691406 140.292969 621.316406 140.292969 C 619.71875 140.292969 618.28125 140.109375 617.003906 139.742188 C 615.726563 139.371094 614.628906 138.746094 613.710938 137.863281 C 612.785156 136.976563 612.082031 135.8125 611.589844 134.363281 C 611.097656 132.914063 610.855469 131.097656 610.855469 128.910156 L 610.855469 117.417969 C 611.738281 117.171875 612.695313 116.964844 613.726563 116.792969 C 614.609375 116.644531 615.648438 116.511719 616.839844 116.386719 C 618.03125 116.265625 619.324219 116.226563 620.726563 116.277344 "/>
<path style=" stroke:none;fill-rule:nonzero;fill:rgb(0%,0%,0%);fill-opacity:1;" d="M 646.546875 138.636719 C 646.425781 138.980469 646.179688 139.3125 645.8125 139.632813 C 645.441406 139.949219 644.863281 140.15625 644.078125 140.257813 C 642.777344 140.402344 641.464844 140.421875 640.140625 140.3125 C 638.8125 140.203125 637.613281 139.914063 636.546875 139.445313 C 635.480469 138.980469 634.605469 138.304688 633.929688 137.421875 C 633.257813 136.535156 632.917969 135.40625 632.917969 134.03125 L 632.917969 116.277344 L 634.246094 116.277344 C 634.6875 116.277344 635.089844 116.3125 635.460938 116.386719 C 635.828125 116.460938 636.152344 116.609375 636.4375 116.828125 C 636.71875 117.050781 636.933594 117.351563 637.082031 117.730469 C 637.230469 118.113281 637.300781 118.597656 637.300781 119.1875 L 637.300781 133.699219 C 637.300781 134.339844 637.417969 134.886719 637.652344 135.339844 C 637.886719 135.792969 638.289063 136.167969 638.867188 136.464844 C 639.445313 136.757813 640.199219 136.972656 641.132813 137.105469 C 642.066406 137.242188 643.230469 137.308594 644.632813 137.308594 L 646.621094 137.308594 C 646.695313 137.777344 646.671875 138.21875 646.546875 138.636719 "/>
<path style=" stroke:none;fill-rule:nonzero;fill:rgb(0%,0%,0%);fill-opacity:1;" d="M 663.125 131.121094 C 662.609375 129.425781 662.105469 127.886719 661.613281 126.5 C 661.121094 125.109375 660.679688 123.925781 660.289063 122.945313 C 659.84375 121.789063 659.402344 120.769531 658.960938 119.886719 C 658.542969 120.769531 658.101563 121.789063 657.636719 122.945313 C 657.21875 123.925781 656.757813 125.109375 656.253906 126.5 C 655.75 127.886719 655.253906 129.425781 654.761719 131.121094 Z M 669.570313 137.089844 C 669.71875 137.65625 669.753906 138.125 669.679688 138.507813 C 669.605469 138.886719 669.453125 139.1875 669.222656 139.410156 C 668.988281 139.632813 668.691406 139.785156 668.335938 139.871094 C 667.980469 139.957031 667.582031 140 667.140625 140 L 665.296875 140 C 665.101563 138.96875 664.894531 137.96875 664.671875 136.996094 C 664.449219 136.027344 664.230469 135.085938 664.007813 134.179688 L 653.878906 134.179688 C 653.65625 135.085938 653.4375 136.027344 653.214844 136.996094 C 652.992188 137.96875 652.785156 138.96875 652.589844 140 L 650.746094 140 C 650.304688 140 649.90625 139.957031 649.550781 139.871094 C 649.191406 139.785156 648.898438 139.632813 648.664063 139.410156 C 648.433594 139.1875 648.277344 138.886719 648.203125 138.507813 C 648.132813 138.125 648.167969 137.65625 648.316406 137.089844 C 648.855469 134.878906 649.449219 132.804688 650.101563 130.863281 C 650.753906 128.925781 651.402344 127.15625 652.054688 125.558594 C 652.703125 123.960938 653.324219 122.550781 653.914063 121.320313 C 654.503906 120.097656 655.007813 119.074219 655.425781 118.265625 C 655.792969 117.554688 656.308594 117.050781 656.972656 116.757813 C 657.636719 116.460938 658.285156 116.277344 658.925781 116.203125 C 659.6875 116.105469 660.484375 116.128906 661.320313 116.277344 C 662.300781 117.972656 663.285156 119.886719 664.265625 122.023438 C 665.101563 123.863281 665.996094 126.050781 666.953125 128.578125 C 667.914063 131.109375 668.785156 133.945313 669.570313 137.089844 "/>
<path style=" stroke:none;fill-rule:nonzero;fill:rgb(0%,0%,0%);fill-opacity:1;" d="M 693 140 L 691.230469 140 C 690.960938 140 690.703125 139.988281 690.457031 139.960938 C 690.210938 139.9375 689.980469 139.890625 689.757813 139.816406 C 688.972656 139.59375 688.230469 139.199219 687.527344 138.636719 C 686.828125 138.070313 686.0625 137.152344 685.226563 135.871094 C 685.003906 135.503906 684.710938 135.039063 684.34375 134.472656 C 683.976563 133.910156 683.570313 133.28125 683.128906 132.59375 C 682.6875 131.90625 682.210938 131.183594 681.710938 130.421875 C 681.203125 129.660156 680.71875 128.910156 680.253906 128.175781 C 679.121094 126.453125 677.933594 124.601563 676.679688 122.613281 L 676.679688 140 L 675.355469 140 C 674.914063 140 674.507813 139.960938 674.140625 139.890625 C 673.769531 139.816406 673.445313 139.667969 673.164063 139.445313 C 672.878906 139.226563 672.664063 138.925781 672.519531 138.542969 C 672.371094 138.164063 672.296875 137.679688 672.296875 137.089844 L 672.296875 116.277344 L 674.066406 116.277344 C 674.554688 116.277344 675.046875 116.335938 675.539063 116.460938 C 676.324219 116.679688 677.066406 117.082031 677.769531 117.65625 C 678.46875 118.234375 679.246094 119.160156 680.105469 120.4375 C 680.328125 120.808594 680.621094 121.273438 680.992188 121.839844 C 681.359375 122.402344 681.765625 123.023438 682.207031 123.699219 C 682.648438 124.375 683.113281 125.09375 683.605469 125.851563 C 684.097656 126.613281 684.589844 127.363281 685.078125 128.101563 C 686.210938 129.820313 687.398438 131.675781 688.652344 133.664063 L 688.652344 116.277344 L 689.941406 116.277344 C 690.382813 116.277344 690.789063 116.3125 691.15625 116.386719 C 691.523438 116.460938 691.84375 116.609375 692.117188 116.828125 C 692.382813 117.050781 692.59375 117.351563 692.742188 117.730469 C 692.890625 118.113281 692.964844 118.597656 692.964844 119.1875 "/>
<path style=" stroke:none;fill-rule:nonzero;fill:rgb(0%,0%,0%);fill-opacity:1;" d="M 701.140625 128.285156 C 701.140625 129.316406 701.269531 130.363281 701.527344 131.433594 C 701.785156 132.503906 702.183594 133.472656 702.722656 134.34375 C 703.261719 135.21875 703.945313 135.929688 704.769531 136.480469 C 705.589844 137.03125 706.578125 137.308594 707.730469 137.308594 C 708.765625 137.308594 709.699219 137.230469 710.53125 137.070313 C 711.367188 136.910156 712.089844 136.824219 712.707031 136.8125 C 713.320313 136.800781 713.792969 136.945313 714.125 137.253906 C 714.453125 137.5625 714.621094 138.179688 714.621094 139.113281 C 713.933594 139.335938 713.210938 139.53125 712.449219 139.703125 C 711.785156 139.851563 711.035156 139.980469 710.199219 140.089844 C 709.367188 140.203125 708.480469 140.257813 707.546875 140.257813 C 705.804688 140.257813 704.214844 139.9375 702.777344 139.300781 C 701.339844 138.660156 700.121094 137.796875 699.113281 136.703125 C 698.105469 135.609375 697.328125 134.339844 696.773438 132.890625 C 696.222656 131.441406 695.945313 129.90625 695.945313 128.285156 C 695.945313 126.664063 696.222656 125.125 696.773438 123.660156 C 697.328125 122.199219 698.105469 120.925781 699.113281 119.832031 C 700.121094 118.738281 701.339844 117.871094 702.777344 117.234375 C 704.214844 116.597656 705.804688 116.277344 707.546875 116.277344 C 708.480469 116.277344 709.367188 116.339844 710.199219 116.460938 C 711.035156 116.582031 711.785156 116.71875 712.449219 116.863281 C 713.210938 117.039063 713.933594 117.222656 714.621094 117.417969 C 714.621094 118.375 714.453125 119.007813 714.125 119.316406 C 713.792969 119.621094 713.320313 119.769531 712.707031 119.757813 C 712.089844 119.746094 711.367188 119.660156 710.53125 119.5 C 709.699219 119.339844 708.765625 119.261719 707.730469 119.261719 C 706.578125 119.261719 705.589844 119.535156 704.769531 120.089844 C 703.945313 120.640625 703.261719 121.347656 702.722656 122.207031 C 702.183594 123.066406 701.785156 124.035156 701.527344 125.117188 C 701.269531 126.195313 701.140625 127.253906 701.140625 128.285156 "/>
<path style=" stroke:none;fill-rule:nonzero;fill:rgb(0%,0%,0%);fill-opacity:1;" d="M 731.050781 131.121094 C 730.535156 129.425781 730.03125 127.886719 729.539063 126.5 C 729.046875 125.109375 728.605469 123.925781 728.214844 122.945313 C 727.769531 121.789063 727.328125 120.769531 726.886719 119.886719 C 726.46875 120.769531 726.027344 121.789063 725.5625 122.945313 C 725.144531 123.925781 724.683594 125.109375 724.179688 126.5 C 723.675781 127.886719 723.179688 129.425781 722.6875 131.121094 Z M 737.496094 137.089844 C 737.644531 137.65625 737.683594 138.125 737.605469 138.507813 C 737.535156 138.886719 737.378906 139.1875 737.148438 139.410156 C 736.914063 139.632813 736.617188 139.785156 736.261719 139.871094 C 735.90625 139.957031 735.507813 140 735.066406 140 L 733.222656 140 C 733.027344 138.96875 732.820313 137.96875 732.597656 136.996094 C 732.378906 136.027344 732.15625 135.085938 731.933594 134.179688 L 721.804688 134.179688 C 721.585938 135.085938 721.363281 136.027344 721.140625 136.996094 C 720.921875 137.96875 720.710938 138.96875 720.515625 140 L 718.671875 140 C 718.230469 140 717.832031 139.957031 717.476563 139.871094 C 717.121094 139.785156 716.824219 139.632813 716.59375 139.410156 C 716.359375 139.1875 716.203125 138.886719 716.132813 138.507813 C 716.058594 138.125 716.09375 137.65625 716.242188 137.089844 C 716.78125 134.878906 717.378906 132.804688 718.03125 130.863281 C 718.679688 128.925781 719.328125 127.15625 719.980469 125.558594 C 720.632813 123.960938 721.253906 122.550781 721.839844 121.320313 C 722.429688 120.097656 722.933594 119.074219 723.351563 118.265625 C 723.71875 117.554688 724.234375 117.050781 724.898438 116.757813 C 725.5625 116.460938 726.214844 116.277344 726.851563 116.203125 C 727.613281 116.105469 728.410156 116.128906 729.246094 116.277344 C 730.226563 117.972656 731.210938 119.886719 732.191406 122.023438 C 733.027344 123.863281 733.921875 126.050781 734.882813 128.578125 C 735.839844 131.109375 736.710938 133.945313 737.496094 137.089844 "/>
</g>
</svg>
